<?xml version="1.0" encoding="UTF-8"?>
<svg id="Layer_1" xmlns="http://www.w3.org/2000/svg" version="1.1" viewBox="0 0 300 300">
  <!-- Generator: Adobe Illustrator 29.6.1, SVG Export Plug-In . SVG Version: 2.1.1 Build 9)  -->
  <defs>
    <style>
      .st0 {
        fill: #fff;
      }
    </style>
  </defs>
  <path class="st0" d="M116.58,83.32c0,18.4-14.91,33.32-33.29,33.32s-33.29-14.92-33.29-33.32,14.93-33.32,33.29-33.32,33.29,14.92,33.29,33.32ZM216.71,50c-18.39,0-33.29,14.92-33.29,33.32s14.91,33.32,33.29,33.32,33.29-14.92,33.29-33.32-14.91-33.32-33.29-33.32ZM150.01,50c-18.38,0-33.29,14.92-33.29,33.32s14.91,33.32,33.29,33.32,33.29-14.92,33.29-33.32-14.91-33.32-33.29-33.32ZM83.29,183.36c-18.39,0-33.29,14.92-33.29,33.32s14.91,33.32,33.29,33.32,33.29-14.92,33.29-33.32-14.91-33.32-33.29-33.32ZM216.71,183.36c-18.39,0-33.29,14.92-33.29,33.32s14.91,33.32,33.29,33.32,33.29-14.92,33.29-33.32-14.91-33.32-33.29-33.32ZM150.01,183.36c-18.38,0-33.29,14.92-33.29,33.32s14.91,33.32,33.29,33.32,33.29-14.92,33.29-33.32-14.91-33.32-33.29-33.32ZM83.29,116.84c-18.39,0-33.29,14.92-33.29,33.32s14.91,33.32,33.29,33.32,33.29-14.92,33.29-33.32-14.91-33.32-33.29-33.32ZM216.71,116.84c-18.39,0-33.29,14.92-33.29,33.32s14.91,33.32,33.29,33.32,33.29-14.92,33.29-33.32-14.91-33.32-33.29-33.32ZM150.01,116.84c-18.38,0-33.29,14.92-33.29,33.32s14.91,33.32,33.29,33.32,33.29-14.92,33.29-33.32-14.91-33.32-33.29-33.32Z"/>
</svg>